G04 Layer_Color=8388736*
%FSLAX25Y25*%
%MOIN*%
G70*
G01*
G75*
%ADD75C,0.08000*%
%ADD93R,0.24803X0.14311*%
%ADD94R,0.11800X0.15800*%
%ADD95R,0.05131X0.04737*%
%ADD96R,0.20800X0.20800*%
%ADD97R,0.02768X0.04540*%
%ADD98R,0.04540X0.02768*%
%ADD99R,0.07887X0.06312*%
%ADD100R,0.09461X0.08871*%
%ADD101O,0.01981X0.06312*%
%ADD102O,0.06312X0.01981*%
%ADD103R,0.05000X0.05300*%
%ADD104R,0.09855X0.07296*%
%ADD105R,0.13398X0.09265*%
%ADD106R,0.04343X0.09265*%
%ADD107R,0.05131X0.07493*%
%ADD108R,0.05131X0.04147*%
%ADD109R,0.03556X0.05918*%
%ADD110R,0.04737X0.01300*%
%ADD111R,0.07887X0.13989*%
%ADD112O,0.04147X0.06902*%
%ADD113O,0.05721X0.04540*%
%ADD114O,0.12800X0.08800*%
%ADD115C,0.06800*%
%ADD116C,0.06312*%
%ADD117C,0.23635*%
D75*
X-129803Y-122047D02*
D03*
X-100276Y-122047D02*
D03*
X-188859Y-122047D02*
D03*
X-218386Y-122047D02*
D03*
D93*
X-47244Y-65817D02*
D03*
D94*
X-173499Y-108268D02*
D03*
X-145399D02*
D03*
D95*
X-58661Y-19882D02*
D03*
Y-32087D02*
D03*
D96*
X-159449Y-136811D02*
D03*
D97*
X-56355Y-148622D02*
D03*
X-61755D02*
D03*
X-63245Y-201772D02*
D03*
X-68645D02*
D03*
X-56355Y-141732D02*
D03*
X-61755D02*
D03*
X-52418Y-40354D02*
D03*
X-57818D02*
D03*
X-41591D02*
D03*
X-46991D02*
D03*
X-30765D02*
D03*
X-36165D02*
D03*
X-20023Y-209449D02*
D03*
X-14623D02*
D03*
X-77503Y-152559D02*
D03*
X-72103D02*
D03*
Y-144685D02*
D03*
X-77503D02*
D03*
X-72103Y-136811D02*
D03*
X-77503D02*
D03*
D98*
X-18701Y-158212D02*
D03*
X-18701Y-152812D02*
D03*
X-12992Y-203487D02*
D03*
Y-198087D02*
D03*
X-46063Y-210292D02*
D03*
Y-215692D02*
D03*
X-53150Y-94235D02*
D03*
Y-88835D02*
D03*
X-32480D02*
D03*
Y-94235D02*
D03*
X-46260Y-88835D02*
D03*
Y-94235D02*
D03*
X-25591Y-88835D02*
D03*
Y-94235D02*
D03*
X-71850Y-117379D02*
D03*
Y-122779D02*
D03*
X-66929Y-35883D02*
D03*
Y-41283D02*
D03*
X-64961Y-208914D02*
D03*
Y-214314D02*
D03*
X-54331Y-215692D02*
D03*
Y-210292D02*
D03*
X-60039Y-88835D02*
D03*
Y-94235D02*
D03*
X-90551Y-102024D02*
D03*
Y-107424D02*
D03*
X-66929Y-94235D02*
D03*
Y-88835D02*
D03*
X-73819D02*
D03*
Y-94235D02*
D03*
X-74410Y-35883D02*
D03*
Y-41283D02*
D03*
D99*
X-82284Y-36713D02*
D03*
Y-47539D02*
D03*
X-82677Y-67421D02*
D03*
Y-56595D02*
D03*
X-13780Y-50689D02*
D03*
Y-39862D02*
D03*
Y-58760D02*
D03*
Y-69587D02*
D03*
D100*
X-42126Y-15256D02*
D03*
Y-31988D02*
D03*
D101*
X-55610Y-202559D02*
D03*
X-53642D02*
D03*
X-51673D02*
D03*
X-49705D02*
D03*
X-47736D02*
D03*
X-45768D02*
D03*
X-43799D02*
D03*
X-41831D02*
D03*
X-39862D02*
D03*
X-37894D02*
D03*
X-35925D02*
D03*
X-33957D02*
D03*
X-31988D02*
D03*
X-30020D02*
D03*
X-28051D02*
D03*
X-26083D02*
D03*
Y-157677D02*
D03*
X-28051D02*
D03*
X-30020D02*
D03*
X-31988D02*
D03*
X-33957D02*
D03*
X-35925D02*
D03*
X-37894D02*
D03*
X-39862D02*
D03*
X-41831D02*
D03*
X-43799D02*
D03*
X-45768D02*
D03*
X-51673D02*
D03*
X-53642D02*
D03*
X-55610D02*
D03*
X-47736D02*
D03*
X-49705D02*
D03*
X-73819Y-80905D02*
D03*
X-71850D02*
D03*
X-69882D02*
D03*
X-67913D02*
D03*
X-65945D02*
D03*
X-63976D02*
D03*
X-62008D02*
D03*
X-60039D02*
D03*
X-58071D02*
D03*
X-56102D02*
D03*
X-54134D02*
D03*
X-52165D02*
D03*
X-50197D02*
D03*
X-48228D02*
D03*
X-46260D02*
D03*
X-44291D02*
D03*
X-42323D02*
D03*
X-40354D02*
D03*
X-38386D02*
D03*
X-36417D02*
D03*
X-34449D02*
D03*
X-32480D02*
D03*
X-30512D02*
D03*
X-28543D02*
D03*
X-26575D02*
D03*
X-24606D02*
D03*
X-22638D02*
D03*
X-20669D02*
D03*
X-73819Y-50984D02*
D03*
X-71850D02*
D03*
X-69882D02*
D03*
X-67913D02*
D03*
X-65945D02*
D03*
X-63976D02*
D03*
X-62008D02*
D03*
X-60039D02*
D03*
X-58071D02*
D03*
X-56102D02*
D03*
X-54134D02*
D03*
X-52165D02*
D03*
X-50197D02*
D03*
X-48228D02*
D03*
X-46260D02*
D03*
X-44291D02*
D03*
X-42323D02*
D03*
X-40354D02*
D03*
X-38386D02*
D03*
X-36417D02*
D03*
X-34449D02*
D03*
X-32480D02*
D03*
X-30512D02*
D03*
X-28543D02*
D03*
X-26575D02*
D03*
X-24606D02*
D03*
X-22638D02*
D03*
X-20669D02*
D03*
D102*
X-18406Y-194882D02*
D03*
Y-192913D02*
D03*
Y-190945D02*
D03*
Y-188976D02*
D03*
Y-187008D02*
D03*
Y-185039D02*
D03*
Y-183071D02*
D03*
Y-181102D02*
D03*
Y-179134D02*
D03*
Y-177165D02*
D03*
Y-175197D02*
D03*
Y-173228D02*
D03*
Y-171260D02*
D03*
Y-169291D02*
D03*
Y-167323D02*
D03*
Y-165354D02*
D03*
X-63287D02*
D03*
Y-167323D02*
D03*
Y-169291D02*
D03*
Y-171260D02*
D03*
Y-173228D02*
D03*
Y-175197D02*
D03*
Y-177165D02*
D03*
Y-179134D02*
D03*
Y-181102D02*
D03*
Y-183071D02*
D03*
Y-185039D02*
D03*
Y-187008D02*
D03*
Y-188976D02*
D03*
Y-190945D02*
D03*
Y-192913D02*
D03*
Y-194882D02*
D03*
D103*
X-27165Y-231890D02*
D03*
X-36614Y-215354D02*
D03*
Y-231890D02*
D03*
X-27165Y-215354D02*
D03*
D104*
X-32480Y-114075D02*
D03*
Y-126083D02*
D03*
X-70866Y-28051D02*
D03*
Y-16043D02*
D03*
D105*
X-54134Y-126673D02*
D03*
D106*
X-63189Y-103642D02*
D03*
X-54134D02*
D03*
X-45079D02*
D03*
D107*
X-103937Y-61122D02*
D03*
Y-69784D02*
D03*
Y-78445D02*
D03*
X-139370D02*
D03*
Y-69784D02*
D03*
Y-61122D02*
D03*
X-103740Y-30217D02*
D03*
Y-38878D02*
D03*
Y-47539D02*
D03*
X-139173D02*
D03*
Y-38878D02*
D03*
Y-30217D02*
D03*
X-148425Y-61122D02*
D03*
Y-69784D02*
D03*
Y-78445D02*
D03*
X-183858D02*
D03*
Y-69784D02*
D03*
Y-61122D02*
D03*
X-148425Y-29921D02*
D03*
Y-38583D02*
D03*
Y-47244D02*
D03*
X-183858D02*
D03*
Y-38583D02*
D03*
Y-29921D02*
D03*
X-192717Y-61122D02*
D03*
Y-69784D02*
D03*
Y-78445D02*
D03*
X-228150D02*
D03*
Y-69784D02*
D03*
Y-61122D02*
D03*
X-192520Y-29921D02*
D03*
Y-38583D02*
D03*
Y-47244D02*
D03*
X-227953D02*
D03*
Y-38583D02*
D03*
Y-29921D02*
D03*
D108*
X-125000Y-62992D02*
D03*
Y-67520D02*
D03*
Y-72047D02*
D03*
Y-76575D02*
D03*
X-113976D02*
D03*
Y-72047D02*
D03*
Y-67520D02*
D03*
Y-62992D02*
D03*
X-124803Y-32087D02*
D03*
Y-36614D02*
D03*
Y-41142D02*
D03*
Y-45669D02*
D03*
X-113779D02*
D03*
Y-41142D02*
D03*
Y-36614D02*
D03*
Y-32087D02*
D03*
X-169488Y-62992D02*
D03*
Y-67520D02*
D03*
Y-72047D02*
D03*
Y-76575D02*
D03*
X-158465D02*
D03*
Y-72047D02*
D03*
Y-67520D02*
D03*
Y-62992D02*
D03*
X-169488Y-31791D02*
D03*
Y-36319D02*
D03*
Y-40846D02*
D03*
Y-45374D02*
D03*
X-158465D02*
D03*
Y-40846D02*
D03*
Y-36319D02*
D03*
Y-31791D02*
D03*
X-213779Y-62992D02*
D03*
Y-67520D02*
D03*
Y-72047D02*
D03*
Y-76575D02*
D03*
X-202756D02*
D03*
Y-72047D02*
D03*
Y-67520D02*
D03*
Y-62992D02*
D03*
X-213583Y-31791D02*
D03*
Y-36319D02*
D03*
Y-40846D02*
D03*
Y-45374D02*
D03*
X-202559D02*
D03*
Y-40846D02*
D03*
Y-36319D02*
D03*
Y-31791D02*
D03*
D109*
X-130512Y-69784D02*
D03*
X-130315Y-38878D02*
D03*
X-175000Y-69784D02*
D03*
X-175000Y-38583D02*
D03*
X-219291Y-69784D02*
D03*
X-219094Y-38583D02*
D03*
D110*
X-217717Y-14173D02*
D03*
X-204331D02*
D03*
X-154724Y-14567D02*
D03*
X-168110D02*
D03*
X-119291Y-14173D02*
D03*
X-105905D02*
D03*
D111*
X-200787D02*
D03*
X-221260D02*
D03*
X-171653Y-14567D02*
D03*
X-151181D02*
D03*
X-102362Y-14173D02*
D03*
X-122835D02*
D03*
D112*
X-44487Y-231102D02*
D03*
X-72048D02*
D03*
D113*
X-48425Y-220472D02*
D03*
X-68110D02*
D03*
D114*
X-7874Y-101693D02*
D03*
Y-91693D02*
D03*
Y-81693D02*
D03*
D115*
X-6890Y-157480D02*
D03*
Y-165354D02*
D03*
Y-173228D02*
D03*
X-74803Y-193898D02*
D03*
Y-201772D02*
D03*
X-64960Y-6889D02*
D03*
X-72834D02*
D03*
D116*
X-6890Y-181102D02*
D03*
Y-188976D02*
D03*
Y-196850D02*
D03*
Y-204724D02*
D03*
X-74803Y-162402D02*
D03*
Y-170276D02*
D03*
Y-178150D02*
D03*
Y-186024D02*
D03*
X-33464Y-6889D02*
D03*
X-41338D02*
D03*
X-49212D02*
D03*
X-57086D02*
D03*
X-6890Y-116142D02*
D03*
Y-124016D02*
D03*
Y-131890D02*
D03*
Y-139764D02*
D03*
D117*
X-11417Y-11417D02*
D03*
X-224803Y-99606D02*
D03*
X-11417Y-224803D02*
D03*
M02*
