G04 Layer_Color=128*
%FSLAX25Y25*%
%MOIN*%
G70*
G01*
G75*
%ADD13R,0.20000X0.20000*%
%ADD14R,0.01968X0.03740*%
%ADD15R,0.03740X0.01968*%
%ADD16R,0.07087X0.05512*%
%ADD76R,0.04331X0.06102*%
%ADD77R,0.05905X0.06102*%
%ADD78R,0.01575X0.05315*%
%ADD79O,0.05315X0.01575*%
%ADD80R,0.03347X0.00984*%
%ADD81R,0.06260X0.09449*%
%ADD82R,0.07874X0.06496*%
%ADD83R,0.20000X0.20000*%
D13*
X-159449Y-136811D02*
D03*
X-116142Y-10827D02*
D03*
X-214567D02*
D03*
D14*
X-31749Y-184056D02*
D03*
X-37149D02*
D03*
X-31749Y-190946D02*
D03*
X-37149D02*
D03*
X-31749Y-177166D02*
D03*
X-37149D02*
D03*
X-59787Y-170276D02*
D03*
X-54387D02*
D03*
X-48960Y-177166D02*
D03*
X-43560D02*
D03*
X-48960Y-184056D02*
D03*
X-43560D02*
D03*
X-48960Y-190946D02*
D03*
X-43560D02*
D03*
X-54387Y-163386D02*
D03*
X-59787Y-163386D02*
D03*
X-6158Y-46260D02*
D03*
X-11558D02*
D03*
X-23369D02*
D03*
X-17969D02*
D03*
X-6158Y-53150D02*
D03*
X-11558D02*
D03*
X-23369D02*
D03*
X-17969D02*
D03*
X-6158Y-60039D02*
D03*
X-11558D02*
D03*
X-23369D02*
D03*
X-17969D02*
D03*
X-77503Y-118111D02*
D03*
X-72102D02*
D03*
X-65692Y-110236D02*
D03*
X-60292D02*
D03*
X-54387Y-156496D02*
D03*
X-59787D02*
D03*
X-24859Y-168307D02*
D03*
X-30259D02*
D03*
X-57339Y-36670D02*
D03*
X-62739D02*
D03*
X-43560D02*
D03*
X-48960D02*
D03*
X-29780D02*
D03*
X-35180D02*
D03*
X-72102Y-110237D02*
D03*
X-77503D02*
D03*
X-28291Y-148622D02*
D03*
X-22891D02*
D03*
X-39117D02*
D03*
X-33717D02*
D03*
X-49944D02*
D03*
X-44544D02*
D03*
D15*
X-58268Y-205456D02*
D03*
Y-200056D02*
D03*
X-51181Y-205456D02*
D03*
Y-200056D02*
D03*
X-21654Y-73566D02*
D03*
Y-68166D02*
D03*
X-28543Y-73566D02*
D03*
Y-68166D02*
D03*
X-35433Y-73566D02*
D03*
Y-68166D02*
D03*
X-43307Y-67661D02*
D03*
Y-62261D02*
D03*
X-57087Y-67661D02*
D03*
Y-62261D02*
D03*
X-73819Y-95725D02*
D03*
Y-101125D02*
D03*
X-53150Y-95725D02*
D03*
Y-101125D02*
D03*
X-66929Y-95725D02*
D03*
Y-101125D02*
D03*
X-59252Y-30400D02*
D03*
Y-25000D02*
D03*
X-45472Y-30400D02*
D03*
Y-25000D02*
D03*
X-31693Y-30400D02*
D03*
Y-25000D02*
D03*
X-24803D02*
D03*
Y-30400D02*
D03*
X-38583Y-25000D02*
D03*
Y-30400D02*
D03*
X-52362Y-25000D02*
D03*
Y-30400D02*
D03*
X-73032D02*
D03*
Y-25000D02*
D03*
X-85630Y-118842D02*
D03*
Y-113442D02*
D03*
X-60039Y-95725D02*
D03*
Y-101125D02*
D03*
X-66142Y-25000D02*
D03*
Y-30400D02*
D03*
X-62008Y-125253D02*
D03*
Y-130653D02*
D03*
X-32677Y-215298D02*
D03*
Y-209898D02*
D03*
X-50197Y-62261D02*
D03*
Y-67661D02*
D03*
X-90551Y-80456D02*
D03*
Y-75056D02*
D03*
Y-50928D02*
D03*
Y-45528D02*
D03*
Y-65692D02*
D03*
Y-60292D02*
D03*
X-25591Y-155765D02*
D03*
Y-161165D02*
D03*
X-36417Y-155765D02*
D03*
Y-161165D02*
D03*
X-47244Y-155765D02*
D03*
Y-161165D02*
D03*
X-34449Y-122300D02*
D03*
Y-127700D02*
D03*
Y-138527D02*
D03*
Y-133127D02*
D03*
D16*
X-196063Y-46949D02*
D03*
Y-57776D02*
D03*
X-107087Y-47047D02*
D03*
Y-57874D02*
D03*
X-220866Y-46949D02*
D03*
Y-57776D02*
D03*
X-151575Y-57776D02*
D03*
Y-46949D02*
D03*
X-132283Y-57776D02*
D03*
Y-46949D02*
D03*
X-176772Y-46949D02*
D03*
Y-57776D02*
D03*
D76*
X-46850Y-231102D02*
D03*
X-69685D02*
D03*
D77*
X-62795D02*
D03*
X-53740D02*
D03*
D78*
X-63386Y-220472D02*
D03*
X-53150D02*
D03*
X-60827D02*
D03*
X-55709D02*
D03*
X-58268D02*
D03*
D79*
X-83563Y-48327D02*
D03*
X-66043Y-77854D02*
D03*
Y-80413D02*
D03*
Y-82972D02*
D03*
Y-85532D02*
D03*
X-83563Y-77854D02*
D03*
Y-80413D02*
D03*
Y-82972D02*
D03*
Y-85532D02*
D03*
X-66043Y-63090D02*
D03*
Y-65650D02*
D03*
Y-68209D02*
D03*
Y-70768D02*
D03*
X-83563Y-63090D02*
D03*
Y-65650D02*
D03*
Y-68209D02*
D03*
Y-70768D02*
D03*
X-66043Y-50886D02*
D03*
Y-53445D02*
D03*
Y-56004D02*
D03*
X-83563Y-50886D02*
D03*
Y-53445D02*
D03*
Y-56004D02*
D03*
X-66043Y-48327D02*
D03*
D80*
X-53819Y-136713D02*
D03*
Y-134153D02*
D03*
Y-131595D02*
D03*
Y-129035D02*
D03*
X-42638Y-136713D02*
D03*
Y-134153D02*
D03*
Y-131595D02*
D03*
Y-129035D02*
D03*
D81*
X-48228Y-132874D02*
D03*
D82*
X-42815Y-111221D02*
D03*
X-28051D02*
D03*
D83*
X-165354Y-10827D02*
D03*
M02*
